<svg width="40" height="40" viewBox="0 0 40 40" fill="none" xmlns="http://www.w3.org/2000/svg">
<path d="M18.8153 2.00641C19.0301 1.19675 20.0855 0.99414 20.5848 1.66673L29.5207 13.7038C29.6912 13.9335 29.9519 14.0792 30.2369 14.104L37.3514 14.723C38.1731 14.7945 38.5598 15.7738 38.0088 16.3874L31.9642 23.1182C31.7994 23.3017 31.7082 23.5397 31.7082 23.7864V37.2263C31.7082 38.0052 30.8571 38.4851 30.1906 38.0819L15.823 29.39C15.3943 29.1307 14.8398 29.2287 14.526 29.6192L9.32139 36.0952C8.68072 36.8924 7.39803 36.3275 7.55355 35.3167L9.07172 25.449C9.11946 25.1388 9.01871 24.824 8.79964 24.5992L0.784231 16.3714C0.201786 15.7736 0.564889 14.7674 1.3949 14.6792L15.1769 13.2154C15.5891 13.1716 15.9316 12.8781 16.0379 12.4774L18.8153 2.00641Z" fill="#F9DC9E"/>
<path d="M29.9544 20.4075C29.8655 20.4075 29.7877 20.3764 29.721 20.3142C29.6588 20.2475 29.6277 20.1697 29.6277 20.0808V17.3601C29.6277 17.2712 29.6588 17.1934 29.721 17.1267C29.7877 17.06 29.8655 17.0267 29.9544 17.0267C30.0478 17.0267 30.1256 17.06 30.1878 17.1267C30.25 17.1934 30.2812 17.2712 30.2812 17.3601V20.0808C30.2812 20.1697 30.25 20.2475 30.1878 20.3142C30.1256 20.3764 30.0478 20.4075 29.9544 20.4075ZM29.9011 21.5278C29.7988 21.5278 29.7144 21.4922 29.6477 21.4211C29.5854 21.35 29.5543 21.2611 29.5543 21.1544C29.5543 21.0432 29.5943 20.9432 29.6744 20.8543C29.7544 20.7654 29.8455 20.7209 29.9478 20.7209C30.05 20.7209 30.1322 20.7587 30.1945 20.8343C30.2612 20.9054 30.2945 20.9921 30.2945 21.0943C30.2945 21.2144 30.2545 21.3166 30.1745 21.4011C30.0945 21.4856 30.0033 21.5278 29.9011 21.5278Z" fill="black"/>
<path d="M27.0172 21.5211C26.7905 21.5211 26.586 21.4633 26.4038 21.3477C26.2259 21.2277 26.0837 21.0543 25.977 20.8276C25.8747 20.6009 25.8236 20.3297 25.8236 20.0141C25.8236 19.6318 25.8836 19.305 26.0037 19.0338C26.1237 18.7627 26.2904 18.5582 26.5038 18.4204C26.7172 18.2781 26.9639 18.207 27.244 18.207C27.4662 18.207 27.7041 18.2581 27.9575 18.3603L27.9908 17.3267C27.9953 17.2378 28.0286 17.1623 28.0908 17.1C28.1575 17.0333 28.2353 17 28.3242 17C28.4087 17 28.482 17.0333 28.5443 17.1C28.611 17.1623 28.6421 17.2423 28.6376 17.3401L28.5443 21.221C28.5398 21.31 28.5065 21.3833 28.4443 21.4411C28.382 21.4989 28.3064 21.5278 28.2175 21.5278C28.1331 21.5278 28.0597 21.5033 27.9975 21.4544C27.9397 21.4055 27.9108 21.3411 27.9108 21.2611V21.141C27.7952 21.2477 27.6596 21.3388 27.504 21.4144C27.3484 21.4856 27.1862 21.5211 27.0172 21.5211ZM27.0706 20.921C27.2217 20.921 27.3618 20.8898 27.4907 20.8276C27.6241 20.7609 27.7285 20.6809 27.8041 20.5876C27.8797 20.4942 27.9197 20.4075 27.9241 20.3275L27.9508 19.0138C27.8708 18.9605 27.7685 18.9138 27.6441 18.8738C27.5196 18.8293 27.3996 18.8071 27.284 18.8071C27.0128 18.8071 26.8083 18.9094 26.6705 19.1139C26.5327 19.3139 26.4638 19.6073 26.4638 19.9941C26.4638 20.3142 26.5171 20.5498 26.6238 20.7009C26.7349 20.8476 26.8839 20.921 27.0706 20.921Z" fill="black"/>
<path d="M24.2018 21.5278C23.8862 21.5278 23.6017 21.4611 23.3483 21.3277C23.0993 21.1899 22.9037 20.9965 22.7615 20.7476C22.6192 20.4942 22.5481 20.1964 22.5481 19.854C22.5481 19.574 22.6103 19.3072 22.7348 19.0538C22.8637 18.796 23.0416 18.5893 23.2683 18.4337C23.4994 18.2781 23.7617 18.2003 24.0551 18.2003C24.3263 18.2003 24.5575 18.2559 24.7486 18.367C24.9442 18.4737 25.0909 18.6026 25.1887 18.7538C25.2866 18.9049 25.3355 19.0405 25.3355 19.1605C25.3355 19.2183 25.3177 19.2739 25.2821 19.3272C25.2465 19.3806 25.1954 19.4273 25.1287 19.4673L23.3416 20.4942C23.4039 20.632 23.5128 20.7387 23.6684 20.8143C23.8284 20.8899 24.0062 20.9276 24.2018 20.9276C24.4597 20.9276 24.6797 20.8321 24.862 20.6409C24.9331 20.5698 25.0065 20.5342 25.0821 20.5342C25.171 20.5342 25.2443 20.5631 25.3021 20.6209C25.3643 20.6787 25.3955 20.7498 25.3955 20.8343C25.3955 20.9054 25.3688 20.9721 25.3154 21.0343C25.191 21.1721 25.0243 21.29 24.8153 21.3878C24.6108 21.4811 24.4063 21.5278 24.2018 21.5278ZM24.6753 19.0805C24.6219 18.9872 24.5464 18.9183 24.4486 18.8738C24.3508 18.8249 24.2352 18.8005 24.1018 18.8005C23.8484 18.8005 23.635 18.8871 23.4617 19.0605C23.2927 19.2339 23.1949 19.4473 23.1682 19.7007C23.1594 19.7674 23.1549 19.8474 23.1549 19.9407L24.6753 19.0805Z" fill="black"/>
<path d="M21.5001 17.9202C21.4156 17.9202 21.3401 17.8869 21.2734 17.8202C21.2111 17.7535 21.1822 17.6779 21.1867 17.5935L21.1934 17.3468C21.1978 17.2623 21.2311 17.1889 21.2934 17.1267C21.3556 17.0645 21.429 17.0333 21.5134 17.0333C21.5979 17.0333 21.6713 17.0667 21.7335 17.1334C21.8002 17.2 21.8313 17.2734 21.8269 17.3534L21.8202 17.6068C21.8157 17.6957 21.7824 17.7713 21.7202 17.8335C21.6624 17.8913 21.589 17.9202 21.5001 17.9202ZM21.4668 21.5278C21.3779 21.5278 21.3001 21.4967 21.2334 21.4344C21.1711 21.3677 21.14 21.2899 21.14 21.201L21.1734 18.547C21.1734 18.4581 21.2045 18.3826 21.2667 18.3203C21.3334 18.2536 21.4112 18.2203 21.5001 18.2203C21.5935 18.2203 21.6713 18.2536 21.7335 18.3203C21.7957 18.3826 21.8269 18.4581 21.8269 18.547L21.7935 21.201C21.7935 21.2899 21.7602 21.3677 21.6935 21.4344C21.6312 21.4967 21.5557 21.5278 21.4668 21.5278Z" fill="black"/>
<path d="M18.7772 21.5278C18.6928 21.5278 18.6172 21.4967 18.5505 21.4344C18.4838 21.3722 18.4505 21.3011 18.4505 21.221V18.5204C18.4505 18.4315 18.4816 18.3559 18.5439 18.2937C18.6105 18.2314 18.6883 18.2003 18.7772 18.2003C18.8662 18.2003 18.9417 18.2314 19.004 18.2937C19.0707 18.3559 19.104 18.4315 19.104 18.5204V18.7204C19.3218 18.3648 19.6197 18.187 19.9975 18.187C20.2243 18.187 20.3865 18.2492 20.4843 18.3737C20.5866 18.4981 20.6377 18.6471 20.6377 18.8204V19.0205C20.6377 19.1094 20.6066 19.185 20.5444 19.2472C20.4866 19.305 20.4132 19.3339 20.3243 19.3339C20.2176 19.3339 20.1376 19.3028 20.0842 19.2406C20.0353 19.1783 20.0109 19.1027 20.0109 19.0138V18.9271C20.0109 18.856 19.962 18.8204 19.8642 18.8204C19.7842 18.8204 19.6908 18.8605 19.5841 18.9405C19.4819 19.0205 19.3974 19.105 19.3307 19.1939C19.2374 19.3095 19.1751 19.425 19.144 19.5406C19.1173 19.6562 19.104 19.794 19.104 19.9541L19.0973 21.221C19.0973 21.3011 19.064 21.3722 18.9973 21.4344C18.9306 21.4967 18.8573 21.5278 18.7772 21.5278Z" fill="black"/>
<path d="M16.8426 21.5345C16.7581 21.5345 16.6826 21.5033 16.6159 21.4411C16.5537 21.3789 16.5225 21.3055 16.5225 21.221V18.8405H15.9957C15.9068 18.8405 15.8313 18.8093 15.769 18.7471C15.7068 18.6804 15.6757 18.6048 15.6757 18.5204C15.6757 18.4226 15.709 18.3448 15.7757 18.287C15.8424 18.2247 15.9202 18.1936 16.0091 18.1936H16.5225V17.4801C16.5225 17.3957 16.5537 17.3201 16.6159 17.2534C16.6781 17.1867 16.7537 17.1534 16.8426 17.1534C16.936 17.1534 17.0115 17.1867 17.0693 17.2534C17.1316 17.3156 17.1627 17.3912 17.1627 17.4801V18.1936H17.7295C17.8184 18.1936 17.894 18.2247 17.9562 18.287C18.0185 18.3492 18.0496 18.427 18.0496 18.5204C18.0496 18.6048 18.0185 18.6804 17.9562 18.7471C17.894 18.8093 17.8184 18.8405 17.7295 18.8405H17.1627V21.221C17.1627 21.3055 17.1316 21.3789 17.0693 21.4411C17.0071 21.5033 16.9315 21.5345 16.8426 21.5345Z" fill="black"/>
<path d="M11.3478 21.5478C11.1077 21.5478 10.9166 21.4967 10.7743 21.3944C10.632 21.2877 10.5254 21.0966 10.4542 20.8209C10.3831 20.5453 10.3475 20.1497 10.3475 19.634C10.3475 19.4606 10.3542 19.2695 10.3675 19.0605C10.3809 18.8516 10.3987 18.676 10.4209 18.5337C10.4387 18.4226 10.472 18.3381 10.5209 18.2803C10.5698 18.2225 10.6409 18.1936 10.7343 18.1936C10.8232 18.1936 10.8988 18.2203 10.961 18.2737C11.0233 18.327 11.0544 18.4048 11.0544 18.507L11.041 18.6938C10.9966 19.0716 10.9744 19.4339 10.9744 19.7807C10.9744 20.2341 11.0121 20.5431 11.0877 20.7076C11.1677 20.8676 11.2767 20.9476 11.4145 20.9476C11.5745 20.9476 11.739 20.9054 11.9079 20.8209C12.0769 20.732 12.1969 20.6476 12.268 20.5676C12.2947 20.5409 12.308 20.4853 12.308 20.4008L12.3214 18.5004C12.3214 18.4115 12.3525 18.3381 12.4147 18.2803C12.4814 18.2225 12.5547 18.1936 12.6348 18.1936C12.7192 18.1936 12.7926 18.2225 12.8548 18.2803C12.9215 18.3381 12.9548 18.4115 12.9548 18.5004V21.2077C12.9548 21.2922 12.9215 21.3678 12.8548 21.4344C12.7926 21.4967 12.7192 21.5278 12.6348 21.5278C12.5459 21.5278 12.4658 21.5011 12.3947 21.4478C12.328 21.39 12.2947 21.3189 12.2947 21.2344V21.161C12.1258 21.2811 11.9679 21.3766 11.8212 21.4478C11.679 21.5145 11.5212 21.5478 11.3478 21.5478Z" fill="black"/>
</svg>
